PathFileType	4	(X/Y/Z)	C:/Users/beibeiliu/ov580/test_trc/User1\sequence.21_training_dense_left.trc
DataRate	CameraRate	NumFrames	NumMarkers	Units	OrigDataRate	OrigDataStartFrame	OrigNumFrames
120	120	14	19	mm	120	1	62
Frame#	Time	ThumbCMC			ThumbMCP			ThumbIP			ThumbTip			IndexMCP			IndexPIP			IndexTip			MiddleMCP			MiddlePIP			MiddleTip			RingMCP			RingPIP			RingTip			PinkyMCP			PinkyPIP			PinkyTip			BackHand1			BackHand2			BackHand3	
		X0	Y0	Z0	X1	Y1	Z1	X2	Y2	Z2	X3	Y3	Z3	X4	Y4	Z4	X5	Y5	Z5	X6	Y6	Z6	X7	Y7	Z7	X8	Y8	Z8	X9	Y9	Z9	X10	Y10	Z10	X11	Y11	Z11	X12	Y12	Z12	X13	Y13	Z13	X14	Y14	Z14	X15	Y15	Z15	X16	Y16	Z16	X17	Y17	Z17	X18	Y18	Z18	
0	0	-127.371	11.529	119.785	-103.356	-2.38692	102.127	-83.4417	-7.27301	81.487	-69.1265	-18.0939	59.7528	-133.695	14.4679	30.4145	-125.679	2.72487	5.7615	-117.907	-20.3031	-17.8323	-156.436	7.81828	18.4486	-149.371	-7.28972	-8.62515	-141.088	-33.1869	-28.254	-176.069	-4.25613	20.0307	-171.425	-16.3923	-3.06091	-163.667	-37.5907	-20.4264	-200.27	-21.6505	36.3931	-196.584	-32.3321	19.2529	-182.301	-45.4867	-2.59087	-190.407	14.5823	76.5244	-198.811	16.5991	114.875	-162.831	27.9859	99.2058	
1	0.00833333	-129.194	10.6554	117.783	-103.381	-1.06749	101.259	-89.4353	-7.58233	79.7311	-71.4266	-17.7149	59.9061	-134.722	14.698	29.5031	-127.313	1.23111	2.35821	-120.514	-21.3092	-17.6394	-155.952	8.11741	16.6632	-149.894	-4.56047	-6.15259	-142.124	-32.0968	-28.0605	-181.735	-3.87988	21.604	-171.237	-15.8172	-2.63452	-162.405	-39.9232	-23.437	-199.848	-18.5327	40.5915	-196.645	-34.6367	15.6171	-187.306	-45.1774	-2.92954	-193.546	13.3141	80.3808	-198.371	18.3689	112.874	-162.097	27.7157	98.275	
2	0.0166667	-129.742	9.77821	120.242	-105.9	-1.74437	103.857	-85.5222	-7.04903	78.0597	-74.2179	-16.7403	63.8211	-129.089	15.1523	27.5658	-127.703	2.61621	5.10854	-117.793	-16.3122	-14.2308	-158.917	9.15499	20.0223	-149.681	-5.0786	-6.24861	-139.844	-28.833	-26.5406	-177.493	-0.9745	24.6412	-170.119	-18.3553	-5.2225	-163.482	-39.6965	-21.7178	-201.525	-18.5848	39.4071	-197.93	-33.3422	18.0407	-185.78	-45.3965	-0.764916	-194.259	14.0324	80.323	-197.25	17.0614	113.373	-163.965	26.8799	101.464	
3	0.025	-125.49	11.0718	116.684	-105.322	-2.08377	101.06	-87.1036	-7.53199	79.9594	-72.5727	-17.0487	65.6628	-131.229	13.9187	28.3297	-122.384	2.3217	2.77277	-122.439	-17.9285	-13.3743	-156.338	9.73091	21.9681	-148.697	-6.69525	-7.65114	-141.296	-31.04	-26.64	-176.097	-1.99223	22.5201	-170.872	-18.1518	-4.11215	-162.68	-35.4474	-18.4851	-196.964	-17.1895	41.4249	-194.288	-30.4599	18.1565	-186.657	-44.3549	-2.32541	-191.232	13.105	78.1002	-200.243	15.9798	111.912	-161.654	27.4607	99.0473	
4	0.0333333	-129.741	8.54951	119.573	-102.999	-2.4569	99.9917	-84.1678	-8.22212	82.2918	-69.4814	-18.5092	64.0887	-128.368	15.651	31.664	-124.188	4.20371	6.54815	-117.315	-15.8489	-13.6071	-152.437	9.26504	16.5677	-144.346	-8.09046	-8.6521	-138.621	-29.4144	-25.7953	-179.699	-4.60838	23.088	-168.75	-18.4047	-5.45487	-162.263	-40.2088	-21.0482	-200.617	-21.2226	39.0498	-193.015	-30.0991	19.6791	-186.161	-45.1703	-2.43792	-191.856	14.1454	78.399	-194.225	18.1502	111.314	-161.357	25.7598	98.8025	
5	0.0416667	-128.305	9.07306	115.676	-103.994	-2.3731	100.794	-85.6015	-8.1893	78.3141	-68.9092	-18.9565	63.1842	-127.518	15.7407	32.9534	-125.422	0.595462	3.30522	-117.504	-16.5662	-13.4237	-156.034	6.88707	17.4518	-145.895	-6.62692	-7.09619	-140.87	-32.3224	-26.1643	-180.111	-5.15607	22.8465	-171.621	-20.3068	-5.21011	-164.895	-39.0323	-19.3843	-199.043	-19.504	38.9091	-194.116	-29.7434	21.0667	-186.343	-46.8018	-0.178777	-189.068	14.5787	82.2524	-196.481	16.4242	112.809	-158.346	26.4185	100.619	
6	0.05	-126.14	10.3748	116.651	-101.227	-1.70131	100.895	-87.3491	-9.74242	82.6489	-71.5824	-18.5654	64.4794	-130.581	12.739	27.6713	-123.037	2.82895	7.27895	-119.788	-18.0852	-13.5874	-156.916	5.89562	16.8648	-146.618	-5.93613	-5.0992	-138.905	-32.5674	-27.9991	-176.328	-3.2536	25.2837	-171.551	-18.9555	-2.50192	-160.83	-39.7686	-22.4113	-200.873	-21.5046	39.0915	-194.557	-34.8577	17.2541	-186.045	-47.6488	-1.60575	-187.633	12.8008	82.7598	-198.258	16.0503	114.188	-162.225	27.1041	101.257	
7	0.0583333	-127.276	10.493	121.133	-102.446	-2.36706	103.621	-82.8471	-7.68202	79.8692	-67.9281	-18.3589	64.841	-129.829	14.3111	28.6259	-121.374	0.619312	3.37604	-120.746	-17.9989	-14.1393	-155.121	6.6136	17.2394	-147.225	-7.02522	-5.66825	-134.705	-33.5235	-28.6883	-175.85	-3.12857	23.7441	-173.335	-20.2776	-3.00316	-164.009	-38.9439	-19.4882	-200.25	-21.2916	36.1994	-194.567	-31.9002	19.6198	-183.339	-49.1788	-3.03162	-192.835	11.9342	81.7375	-197.748	16.131	112.25	-159.475	28.9749	100.796	
8	0.0666667	-127.377	10.2369	118.242	-103.384	-1.8879	99.807	-88.2708	-7.61791	79.2183	-72.2309	-17.538	58.2892	-131.174	18.8033	31.514	-123.401	4.61579	2.30461	-114.224	-16.6519	-15.7888	-156.07	12.1108	20.7267	-148.592	-5.80729	-9.00653	-136.583	-29.8816	-26.1292	-177.528	-0.875156	22.0127	-172.079	-16.0146	-3.51633	-157.601	-37.1147	-20.1946	-200.58	-17.8146	40.0353	-193.457	-28.3896	18.9349	-180.905	-45.5162	-2.67355	-190.382	12.8588	80.979	-199.228	14.5189	115.574	-161.693	26.8646	102.283	
9	0.075	-131.878	12.6075	121.039	-101.986	2.93975	100.703	-87.1705	-0.989599	80.0964	-80.5505	-12.4369	56.8777	-134.131	33.0809	34.9147	-130.242	22.9532	7.57579	-117.953	-1.84314	-10.3735	-157.513	26.7904	22.1356	-146.647	13.8534	-6.1355	-133.163	-15.2736	-19.4918	-175.607	13.1709	23.3883	-171.852	-1.45939	-3.05473	-154.09	-25.1931	-14.989	-195.573	-7.16271	40.6587	-188.276	-20.0802	14.8349	-169.022	-33.5329	0.182253	-195.457	15.7959	83.5176	-201.112	15.7766	114.031	-164.579	31.0394	107.183	
10	0.0833333	-133.256	23.825	123.572	-107.594	16.0585	100.311	-94.9144	14.8075	74.1692	-91.9356	5.5166	45.6638	-142.437	58.1322	44.263	-130.952	53.223	16.3185	-113.549	22.7585	6.93884	-162.271	53.2205	29.6437	-147.476	44.0671	2.91558	-130.809	10.8344	-3.24883	-182.093	33.4879	29.4582	-166.82	25.332	1.39403	-144.176	-0.656739	-3.16839	-193.074	11.932	41.2737	-179.408	5.13205	15.0554	-155.037	-9.07665	8.04317	-198.413	25.6039	87.9893	-203.358	19.2806	116.442	-172.216	40.4683	113.146	
11	0.0916667	-139.787	33.0363	130.665	-108.028	35.3875	104.708	-100.948	38.4142	75.4669	-110.473	29.8352	48.0572	-145.55	85.3203	58.7971	-128.855	79.7967	31.3518	-112.234	52.3205	33.4795	-164.687	78.6688	45.4237	-144.282	70.8457	15.9861	-124.2	36.4763	23.9015	-180.84	58.2706	39.9879	-158.799	54.4397	13.8956	-140.774	26.6178	14.873	-187.342	37.575	42.011	-171.429	34.1659	23.629	-143.762	14.5531	21.3614	-201.224	40.3022	92.1479	-208.564	24.5294	120.783	-173.907	51.8299	121.261	
12	0.1	-141.515	45.1237	133.056	-114.517	48.1105	106.869	-106.579	52.996	76.6493	-120.13	44.2466	48.5321	-144.353	101.151	68.6201	-123.816	95.3836	45.6802	-110.316	66.6071	54.8922	-161.216	95.3239	53.9977	-137.899	84.2598	29.4706	-126.077	52.0093	42.6262	-179.021	73.2389	43.6969	-149.634	67.131	23.5822	-136.642	39.0034	34.0066	-188.513	48.975	47.1078	-166.166	49.3263	28.7665	-138.293	28.4594	37.9635	-196.877	50.6425	96.4053	-206.238	28.552	125.105	-178.023	56.2086	128.196	
13	0.108333	-139.693	42.9777	135.995	-110.926	51.4703	105.24	-110.811	54.9328	73.5554	-128.568	42.3054	49.0844	-146.291	99.0572	70.3291	-124.259	93.1654	46.6384	-111.855	61.8831	66.0561	-159.991	95.9303	51.3798	-134.226	81.6126	33.4608	-127.744	51.4221	53.7011	-173.843	75.3965	42.6767	-150.203	64.0378	25.4653	-137.943	37.6134	42.9362	-183.343	54.5711	45.0981	-159.325	44.4719	30.5483	-140.936	26.5279	47.7248	-197.835	52.0387	95.9408	-207.224	32.3036	123.653	-180.118	57.3927	131.157	
